<?xml version="1.0" encoding="UTF-8"?>
<svg version="1.1" xmlns="http://www.w3.org/2000/svg" width="225" height="225">
<path d="M0 0 C1.57793233 1.33615238 3.1413845 2.68965606 4.6875 4.0625 C5.37328125 4.65417969 6.0590625 5.24585937 6.765625 5.85546875 C20.64398779 18.66836668 29.81866426 38.66238354 30.81347656 57.44042969 C31.65982711 85.86280933 24.18593889 112.73506182 4.6875 134.0625 C3.92824219 134.91457031 3.16898438 135.76664063 2.38671875 136.64453125 C-11.52868996 151.47093234 -30.25400299 160.11708932 -50.5546875 161.2421875 C-66.22138692 161.5739529 -80.59893884 157.85182306 -92.40625 147.16796875 C-104.7214126 134.40282905 -108.68804859 118.45421005 -108.46655273 101.20825195 C-108.42527365 99.15944027 -108.3703526 97.11091068 -108.3125 95.0625 C-107.6525 94.7325 -106.9925 94.4025 -106.3125 94.0625 C-106.03277344 94.95710938 -105.75304687 95.85171875 -105.46484375 96.7734375 C-100.97623215 110.31143648 -94.33194697 120.93338848 -81.4375 127.875 C-68.01465717 134.0953418 -53.8333995 133.15056111 -40.1328125 128.2890625 C-27.38691677 122.70953385 -18.61851038 110.32554446 -13.37890625 97.875 C-6.83030175 80.60395517 -7.38119454 62.24605654 -14.48046875 45.26953125 C-21.19738503 30.90098219 -32.53226575 20.85142508 -47.3125 15.0625 C-67.55084958 8.23843465 -88.00884842 9.73286869 -107.3125 19.0625 C-108.06660156 19.41957031 -108.82070312 19.77664062 -109.59765625 20.14453125 C-134.38177217 32.87394106 -150.7005143 56.637081 -159.41137695 82.45825195 C-162.70439878 92.80689782 -163.61572698 102.73289146 -163.5 113.5625 C-163.49935547 114.70847656 -163.49871094 115.85445312 -163.49804688 117.03515625 C-163.46190893 124.09410204 -163.08316713 131.04579304 -162.3125 138.0625 C-164.55052183 135.31700614 -165.86862937 132.96633767 -166.8828125 129.578125 C-167.13933594 128.72476563 -167.39585937 127.87140625 -167.66015625 126.9921875 C-167.91667969 126.10789063 -168.17320312 125.22359375 -168.4375 124.3125 C-168.70175781 123.44367188 -168.96601563 122.57484375 -169.23828125 121.6796875 C-176.50485207 97.11351406 -173.46507212 69.31516518 -163.3125 46.0625 C-163.04421387 45.44745605 -162.77592773 44.83241211 -162.49951172 44.19873047 C-158.51432641 35.27201078 -153.51424115 27.59693341 -147.3125 20.0625 C-146.60222656 19.19882812 -145.89195312 18.33515625 -145.16015625 17.4453125 C-110.79015492 -22.45620803 -42.74281276 -33.22993066 0 0 Z " fill="#0370BC" transform="translate(175.3125,21.9375)"/>
<path d="M0 0 C10.05610138 9.63785485 16.73268146 24.25831252 17.26171875 38.27954102 C17.28535738 40.41662117 17.27511893 42.55045911 17.25 44.6875 C17.24548828 45.42355469 17.24097656 46.15960938 17.23632812 46.91796875 C17.22465142 48.71618158 17.20672011 50.51435197 17.1875 52.3125 C16.1975 52.8075 16.1975 52.8075 15.1875 53.3125 C14.76339844 52.26191406 14.33929688 51.21132812 13.90234375 50.12890625 C8.24285373 36.43617066 2.18892084 26.96368578 -11.3828125 19.9921875 C-23.05816468 15.23556254 -39.49970075 15.15092648 -51.18359375 19.9375 C-63.32662082 26.28868206 -72.86359762 36.39931751 -77.8125 49.3125 C-78.18246094 50.21097656 -78.55242187 51.10945313 -78.93359375 52.03515625 C-81.74592607 60.04397804 -82.20279176 67.56277026 -82.25 76 C-82.25999023 77.04470459 -82.26998047 78.08940918 -82.28027344 79.16577148 C-82.09491948 95.9548679 -75.66249649 109.56483508 -63.8125 121.3125 C-63.22082031 121.94929687 -62.62914062 122.58609375 -62.01953125 123.2421875 C-57.8628678 127.37132338 -53.22926227 129.76332093 -47.9375 132.125 C-47.28966553 132.41528076 -46.64183105 132.70556152 -45.97436523 133.00463867 C-30.68608553 139.43691427 -9.32984114 140.16074415 6.1875 134.3125 C35.13500684 122.05756563 54.312696 100.04065154 66.1875 71.3125 C72.03384001 55.74639348 74.85379111 36.78171247 71.1875 20.3125 C71.07071201 17.63571927 71.1420494 14.99408543 71.1875 12.3125 C76.14754638 15.97172398 76.66139624 20.99019618 77.875 26.6875 C78.08705078 27.62078125 78.29910156 28.5540625 78.51757812 29.515625 C79.0999946 32.10985863 79.64992118 34.70866172 80.1875 37.3125 C80.39375 38.2715625 80.6 39.230625 80.8125 40.21875 C84.49263394 70.57985498 77.39089853 100.69832374 59 125.23046875 C56.8013579 127.99785681 54.53194606 130.66789994 52.1875 133.3125 C51.52492187 134.07046875 50.86234375 134.8284375 50.1796875 135.609375 C32.18726845 154.90162661 5.32477927 166.18680291 -20.8125 167.3125 C-48.17861505 168.20737657 -73.56189866 163.75786825 -94.8125 145.3125 C-95.41191406 144.879375 -96.01132813 144.44625 -96.62890625 144 C-109.18902659 134.67462063 -118.63954117 114.60752356 -121.375 99.5625 C-123.29146669 83.7909217 -122.99908926 67.41353948 -117.8125 52.3125 C-117.57112305 51.60834961 -117.32974609 50.90419922 -117.08105469 50.17871094 C-111.75425111 35.17655594 -103.9138145 22.76525277 -92.8125 11.3125 C-92.27496094 10.70148438 -91.73742187 10.09046875 -91.18359375 9.4609375 C-69.00804419 -14.88214698 -25.94889008 -21.39030128 0 0 Z " fill="#EE5925" transform="translate(141.8125,53.6875)"/>
<path d="M0 0 C4.96004638 3.65922398 5.47389624 8.67769618 6.6875 14.375 C7.00557617 15.77492188 7.00557617 15.77492188 7.33007812 17.203125 C7.9124946 19.79735863 8.46242118 22.39616172 9 25 C9.20625 25.9590625 9.4125 26.918125 9.625 27.90625 C12.6215833 52.62806223 7.92926516 74.52546241 -2 97 C-3 94 -3 94 -2.4375 91 C-1.63299852 87.82579043 -1.63299852 87.82579043 -4 85 C-4.4140625 82.51953125 -4.4140625 82.51953125 -4.625 79.8125 C-4.69976562 78.91144531 -4.77453125 78.01039063 -4.8515625 77.08203125 C-4.90054688 76.39496094 -4.94953125 75.70789063 -5 75 C-9.16658811 76.81798938 -10.57581958 79.16823094 -13 83 C-14.625 84.875 -14.625 84.875 -16 86 C-16.66 86 -17.32 86 -18 86 C-18.66 87.65 -19.32 89.3 -20 91 C-18.68 91.33 -17.36 91.66 -16 92 C-16.99 92.495 -16.99 92.495 -18 93 C-18.99 92.67 -19.98 92.34 -21 92 C-21.33 93.32 -21.66 94.64 -22 96 C-22.66 96 -23.32 96 -24 96 C-24.33 96.99 -24.66 97.98 -25 99 C-27.475 99.495 -27.475 99.495 -30 100 C-29.21625 98.96875 -28.4325 97.9375 -27.625 96.875 C-27.07714844 96.13636719 -26.52929688 95.39773437 -25.96484375 94.63671875 C-24.55906789 92.75024021 -23.13208383 90.87949232 -21.69140625 89.01953125 C-4.75616881 66.72839099 2.63641433 40.88882682 1 13 C0.69554104 11.3278177 0.36933158 9.6590609 0 8 C-0.11678799 5.32321927 -0.0454506 2.68158543 0 0 Z " fill="#EE5A25" transform="translate(213,66)"/>
<path d="M0 0 C0 0.66 0 1.32 0 2 C-0.59425781 2.21914062 -1.18851562 2.43828125 -1.80078125 2.6640625 C-16.22532722 8.18262907 -29.95984801 16.36306536 -40.59765625 27.703125 C-42 29 -42 29 -44 29 C-44 29.66 -44 30.32 -44 31 C-44.66 31 -45.32 31 -46 31 C-46.27328125 31.57492188 -46.5465625 32.14984375 -46.828125 32.7421875 C-47.99986286 34.99973577 -49.31131241 37.02884766 -50.75 39.125 C-51.83515168 40.7487863 -52.91845434 42.37380963 -54 44 C-54.48855469 44.72960938 -54.97710937 45.45921875 -55.48046875 46.2109375 C-58.82128973 51.45951952 -61.36960981 56.8936716 -63.75 62.625 C-64.04382568 63.32947266 -64.33765137 64.03394531 -64.64038086 64.75976562 C-66.53153432 69.44689403 -67.83654005 74.08293398 -69 79 C-69.5259375 80.36125 -69.5259375 80.36125 -70.0625 81.75 C-74.76274143 98.04417029 -73.35278863 120.9416341 -68 137 C-67.99589111 136.2565332 -67.99178223 135.51306641 -67.98754883 134.74707031 C-67.83382185 118.78406072 -66.71259474 104.27029711 -62 89 C-61.60980667 87.65334566 -61.22283072 86.30575277 -60.83984375 84.95703125 C-60.56269531 83.98121094 -60.28554688 83.00539063 -60 82 C-59.34 82 -58.68 82 -58 82 C-57.75894531 81.1646875 -57.51789062 80.329375 -57.26953125 79.46875 C-55.81188547 75.48601321 -53.8912725 72.10617318 -51.6875 68.5 C-51.30916016 67.86191406 -50.93082031 67.22382812 -50.54101562 66.56640625 C-48.01221035 62.38168279 -45.31745445 58.60085508 -42 55 C-41.34 55 -40.68 55 -40 55 C-39.67 53.68 -39.34 52.36 -39 51 C-38.34 51 -37.68 51 -37 51 C-36.67 50.01 -36.34 49.02 -36 48 C-34.29296875 46.24609375 -34.29296875 46.24609375 -32.1875 44.4375 C-31.50042969 43.83808594 -30.81335937 43.23867188 -30.10546875 42.62109375 C-28.13444155 41.10351251 -26.26035739 40.02097042 -24 39 C-24 38.34 -24 37.68 -24 37 C-20.362132 34.94413071 -16.6909085 32.95898642 -13 31 C-12.02417969 30.4740625 -11.04835937 29.948125 -10.04296875 29.40625 C3.53822137 22.5720696 19.92140035 18.82555797 35 22 C35 22.33 35 22.66 35 23 C33.94683594 23.03738281 32.89367187 23.07476562 31.80859375 23.11328125 C17.39568693 23.72580876 4.15118841 25.64391039 -9 32 C-9.75410156 32.35707031 -10.50820312 32.71414062 -11.28515625 33.08203125 C-36.06927217 45.81144106 -52.3880143 69.574581 -61.09887695 95.39575195 C-64.39189878 105.74439782 -65.30322698 115.67039146 -65.1875 126.5 C-65.18685547 127.64597656 -65.18621094 128.79195312 -65.18554688 129.97265625 C-65.14940893 137.03160204 -64.77066713 143.98329304 -64 151 C-66.23802183 148.25450614 -67.55612937 145.90383767 -68.5703125 142.515625 C-68.82683594 141.66226563 -69.08335938 140.80890625 -69.34765625 139.9296875 C-69.60417969 139.04539063 -69.86070313 138.16109375 -70.125 137.25 C-70.38925781 136.38117188 -70.65351562 135.51234375 -70.92578125 134.6171875 C-78.19235207 110.05101406 -75.15257212 82.25266518 -65 59 C-64.73171387 58.38495605 -64.46342773 57.76991211 -64.18701172 57.13623047 C-60.20182641 48.20951078 -55.20174115 40.53443341 -49 33 C-48.28972656 32.13632812 -47.57945313 31.27265625 -46.84765625 30.3828125 C-37.00358931 18.95443822 -16.39324481 0 0 0 Z " fill="#1A5983" transform="translate(77,9)"/>
<path d="M0 0 C1.57793233 1.33615238 3.1413845 2.68965606 4.6875 4.0625 C5.37328125 4.65417969 6.0590625 5.24585937 6.765625 5.85546875 C20.64398779 18.66836668 29.81866426 38.66238354 30.81347656 57.44042969 C31.63119902 84.90141306 24.69198231 110.6111361 6.765625 131.890625 C4.85588786 133.88651569 2.95247044 135.49130429 0.6875 137.0625 C1.71735829 133.40078162 3.43180627 131.07816637 5.9375 128.3125 C12.79107998 120.71799246 19.3449367 111.46736556 20.6875 101.0625 C21.3475 101.0625 22.0075 101.0625 22.6875 101.0625 C23.33942688 98.56395233 23.98413064 96.0638863 24.625 93.5625 C24.80740234 92.86640625 24.98980469 92.1703125 25.17773438 91.453125 C27.41117385 82.68179904 27.86934455 74.27043943 27.875 65.25 C27.88724609 64.23357422 27.89949219 63.21714844 27.91210938 62.16992188 C27.92961359 53.0152171 27.0218563 44.27077742 23.3125 35.8125 C22.66087891 34.32363281 22.66087891 34.32363281 21.99609375 32.8046875 C20.39169583 29.44263574 18.57221292 26.27349238 16.6875 23.0625 C16.6875 22.4025 16.6875 21.7425 16.6875 21.0625 C15.6975 21.0625 14.7075 21.0625 13.6875 21.0625 C13.39617187 20.39863281 13.10484375 19.73476563 12.8046875 19.05078125 C10.12077754 13.26940287 7.78027867 9.85247483 2.6875 6.0625 C2.6875 5.4025 2.6875 4.7425 2.6875 4.0625 C2.0275 4.0625 1.3675 4.0625 0.6875 4.0625 C0.6875 3.4025 0.6875 2.7425 0.6875 2.0625 C-0.3025 2.0625 -1.2925 2.0625 -2.3125 2.0625 C-2.3125 1.4025 -2.3125 0.7425 -2.3125 0.0625 C-2.9828125 -0.18757813 -3.653125 -0.43765625 -4.34375 -0.6953125 C-7.24090788 -1.90754435 -9.99835597 -3.29971238 -12.77954102 -4.75537109 C-38.64132707 -18.20337561 -67.39975384 -18.97063289 -95.3125 -11.9375 C-95.9725 -11.9375 -96.6325 -11.9375 -97.3125 -11.9375 C-97.3125 -12.5975 -97.3125 -13.2575 -97.3125 -13.9375 C-65.39548378 -23.70801517 -27.02218634 -21.00810219 0 0 Z " fill="#125684" transform="translate(175.3125,21.9375)"/>
<path d="M0 0 C4.96004638 3.65922398 5.47389624 8.67769618 6.6875 14.375 C6.89955078 15.30828125 7.11160156 16.2415625 7.33007812 17.203125 C7.9124946 19.79735863 8.46242118 22.39616172 9 25 C9.20625 25.9590625 9.4125 26.918125 9.625 27.90625 C12.6215833 52.62806223 7.92926516 74.52546241 -2 97 C-3.16952466 93.49142603 -2.76017128 91.57280503 -2 88 C-1 86 -1 86 1 83 C4.9552859 71.11869195 7.18618835 59.46416786 8 47 C5.24358584 47.49756092 5.24358584 47.49756092 3 49 C2.31246699 50.65816784 1.64438717 52.32459336 1 54 C0.01 54 -0.98 54 -2 54 C-2.33 54.66 -2.66 55.32 -3 56 C-2.87882813 55.44054687 -2.75765625 54.88109375 -2.6328125 54.3046875 C-0.37166814 43.48598143 1.17691145 32.99088661 1.1875 21.9375 C1.18830566 21.12804932 1.18911133 20.31859863 1.18994141 19.48461914 C1.15248935 15.50929135 0.86672801 11.89339724 0 8 C-0.11678799 5.32321927 -0.0454506 2.68158543 0 0 Z " fill="#DB5527" transform="translate(213,66)"/>
<path d="M0 0 C2.0294685 3.04420275 2.99449685 5.68035609 4.1875 9.125 C8.7464219 21.14397591 16.79389389 29.05390288 28 35 C28 35.33 28 35.66 28 36 C24.15996751 36.08930308 20.73770116 35.88524501 17 35 C16.2575 34.835 15.515 34.67 14.75 34.5 C13 34 13 34 12 33 C9.8578386 36.48101227 9.31264096 38.95221902 10 43 C14.24766099 50.58109031 20.8902508 55.28159501 28 60 C27.01 60.495 27.01 60.495 26 61 C12.43661428 52.99383482 4.54740417 41.27615223 0.0625 26.3125 C-1.76182524 18.07505596 -1.44448127 9.38531016 -1 1 C-0.67 0.67 -0.34 0.34 0 0 Z M12 35 C14 36 14 36 14 36 Z " fill="#0671BB" transform="translate(68,116)"/>
<path d="M0 0 C11.44583911 9.43508359 17.73923121 23.63217062 19.5 38.21875 C19.60541 41.01246162 19.59535426 43.79861073 19.5625 46.59375 C19.55798828 47.32980469 19.55347656 48.06585938 19.54882812 48.82421875 C19.53715142 50.62243158 19.51922011 52.42060197 19.5 54.21875 C18.51 54.71375 18.51 54.71375 17.5 55.21875 C17.07589844 54.16816406 16.65179688 53.11757812 16.21484375 52.03515625 C11.84562554 41.4768411 6.89669507 33.10655446 -1.5 25.21875 C-0.18 25.21875 1.14 25.21875 2.5 25.21875 C2.5 25.87875 2.5 26.53875 2.5 27.21875 C3.49 27.21875 4.48 27.21875 5.5 27.21875 C6.88671875 28.64453125 6.88671875 28.64453125 8.1875 30.53125 C8.62449219 31.14613281 9.06148437 31.76101562 9.51171875 32.39453125 C10.5 34.21875 10.5 34.21875 10.5 37.21875 C11.16 37.21875 11.82 37.21875 12.5 37.21875 C14.8208055 40.4678777 15.93697042 43.27754291 16.5 47.21875 C19.33377588 38.71742237 15.21979505 28.00039023 11.5 20.21875 C11.19449219 19.57679687 10.88898438 18.93484375 10.57421875 18.2734375 C9.90544521 16.91053408 9.20707055 15.56218404 8.5 14.21875 C7.84 14.21875 7.18 14.21875 6.5 14.21875 C6.066875 13.249375 5.63375 12.28 5.1875 11.28125 C3.7985139 7.94143235 3.7985139 7.94143235 0.5 7.21875 C0.04625 6.249375 -0.4075 5.28 -0.875 4.28125 C-2.22142507 1.03748754 -2.22142507 1.03748754 -5.1875 -0.15625 C-5.950625 -0.3625 -6.71375 -0.56875 -7.5 -0.78125 C-7.5 -1.44125 -7.5 -2.10125 -7.5 -2.78125 C-8.06976563 -2.9153125 -8.63953125 -3.049375 -9.2265625 -3.1875 C-12.24292873 -3.9752795 -15.14796273 -5.02434637 -18.0859375 -6.0625 C-24.40806358 -7.94481586 -30.82975805 -8.07324881 -37.375 -8.34375 C-38.34953125 -8.38693359 -39.3240625 -8.43011719 -40.328125 -8.47460938 C-42.71862802 -8.58007274 -45.10922444 -8.68219175 -47.5 -8.78125 C-47.5 -9.11125 -47.5 -9.44125 -47.5 -9.78125 C-30.73559513 -12.82932361 -13.99434492 -9.97097076 0 0 Z " fill="#C1532B" transform="translate(139.5,51.78125)"/>
<path d="M0 0 C0 0.66 0 1.32 0 2 C-0.59425781 2.21914062 -1.18851562 2.43828125 -1.80078125 2.6640625 C-16.22532722 8.18262907 -29.95984801 16.36306536 -40.59765625 27.703125 C-42 29 -42 29 -44 29 C-44 29.66 -44 30.32 -44 31 C-44.66 31 -45.32 31 -46 31 C-46.27328125 31.57492188 -46.5465625 32.14984375 -46.828125 32.7421875 C-47.99986286 34.99973577 -49.31131241 37.02884766 -50.75 39.125 C-51.83515168 40.7487863 -52.91845434 42.37380963 -54 44 C-54.48855469 44.72960938 -54.97710937 45.45921875 -55.48046875 46.2109375 C-58.82128973 51.45951952 -61.36960981 56.8936716 -63.75 62.625 C-64.04382568 63.32947266 -64.33765137 64.03394531 -64.64038086 64.75976562 C-66.53311953 69.45082288 -67.85094023 74.07403071 -69 79 C-69.53480671 81.00184529 -70.07558177 83.00211552 -70.625 85 C-70.88539062 85.94875 -71.14578125 86.8975 -71.4140625 87.875 C-71.60742188 88.57625 -71.80078125 89.2775 -72 90 C-72.33 90 -72.66 90 -73 90 C-71.6954714 62.60489948 -55.96006611 37.78609982 -36.34765625 19.53125 C-27.5866713 12.01815865 -11.84398559 0 0 0 Z " fill="#165B8D" transform="translate(77,9)"/>
<path d="M0 0 C2.0294685 3.04420275 2.99449685 5.68035609 4.1875 9.125 C8.7464219 21.14397591 16.79389389 29.05390288 28 35 C26.25 35.6875 26.25 35.6875 24 36 C22.0625 34.75 22.0625 34.75 20 33 C19.175 32.505 18.35 32.01 17.5 31.5 C15.19161595 30.11496957 13.04956815 28.74592842 11 27 C11 26.34 11 25.68 11 25 C10.34 25 9.68 25 9 25 C8.15885829 23.56705502 7.32734313 22.12845595 6.5 20.6875 C6.0359375 19.88699219 5.571875 19.08648437 5.09375 18.26171875 C4 16 4 16 4 13 C3.34 13 2.68 13 2 13 C2 11.68 2 10.36 2 9 C1.34 9 0.68 9 0 9 C4.14310687 34.3526489 4.14310687 34.3526489 19.796875 54.23828125 C21.25867188 55.26501953 21.25867188 55.26501953 22.75 56.3125 C23.73484375 57.00988281 24.7196875 57.70726562 25.734375 58.42578125 C26.85585937 59.20501953 26.85585937 59.20501953 28 60 C27.01 60.495 27.01 60.495 26 61 C12.43661428 52.99383482 4.54740417 41.27615223 0.0625 26.3125 C-1.76182524 18.07505596 -1.44448127 9.38531016 -1 1 C-0.67 0.67 -0.34 0.34 0 0 Z " fill="#1C5E81" transform="translate(68,116)"/>
<path d="M0 0 C0.57234375 0.72445312 1.1446875 1.44890625 1.734375 2.1953125 C5.31610501 6.62924723 9.1029242 10.8418136 13 15 C13.59425781 15.64582031 14.18851563 16.29164063 14.80078125 16.95703125 C18.97349751 21.05573037 23.5896353 23.45367612 28.875 25.8125 C29.52283447 26.10278076 30.17066895 26.39306152 30.83813477 26.69213867 C39.78152246 30.45491221 48.67845699 31.36577135 58.3125 31.3125 C59.82263672 31.30839111 59.82263672 31.30839111 61.36328125 31.30419922 C68.97520491 31.19752439 75.71272691 30.28773504 83 28 C84.43712431 27.60280484 85.87455902 27.20672839 87.3125 26.8125 C88.199375 26.544375 89.08625 26.27625 90 26 C89.67 26.66 89.34 27.32 89 28 C86.4375 28.625 86.4375 28.625 84 29 C84 29.66 84 30.32 84 31 C66.29130471 34.68200595 50.73496275 34.44846498 33 31 C33 30.34 33 29.68 33 29 C32.13632813 28.90589844 31.27265625 28.81179687 30.3828125 28.71484375 C26.62082969 27.9198751 24.14043654 26.57103578 20.875 24.5625 C16.89227063 22.10671514 16.89227063 22.10671514 12.76171875 19.921875 C8.53865301 17.71202242 6.35730372 12.96455625 4 9 C3.34 8.34 2.68 7.68 2 7 C2 6.01 2 5.02 2 4 C1.34 4 0.68 4 0 4 C0 2.68 0 1.36 0 0 Z " fill="#C7522C" transform="translate(65,160)"/>
<path d="M0 0 C-2.69203601 1.39352898 -5.37983997 2.57127566 -8.22265625 3.62109375 C-9.00833984 3.91693359 -9.79402344 4.21277344 -10.60351562 4.51757812 C-12.24499002 5.13166426 -13.88823727 5.74103188 -15.53320312 6.34570312 C-16.31759766 6.64283203 -17.10199219 6.93996094 -17.91015625 7.24609375 C-18.62308838 7.51091553 -19.33602051 7.7757373 -20.07055664 8.04858398 C-22.16584828 9.08178043 -23.37453836 10.34961597 -25 12 C-25.66 12 -26.32 12 -27 12 C-27 13.65 -27 15.3 -27 17 C-28.175625 17.2165625 -28.175625 17.2165625 -29.375 17.4375 C-31.96421018 17.87798925 -31.96421018 17.87798925 -34 19 C-34.33 19.66 -34.66 20.32 -35 21 C-35.99 21 -36.98 21 -38 21 C-38 22.32 -38 23.64 -38 25 C-40.9375 27.1875 -40.9375 27.1875 -44 29 C-44.33 29.33 -44.66 29.66 -45 30 C-44.34 30.33 -43.68 30.66 -43 31 C-43 31.66 -43 32.32 -43 33 C-43.66 33 -44.32 33 -45 33 C-44.67 34.32 -44.34 35.64 -44 37 C-47.465 35.515 -47.465 35.515 -51 34 C-51.061875 34.556875 -51.12375 35.11375 -51.1875 35.6875 C-52.33373872 38.94987173 -54.49390197 40.68667874 -57 43 C-51.2880667 27.19321428 -35.73442043 13.48921497 -21 6 C-6.79690364 -0.50878933 -6.79690364 -0.50878933 0 0 Z " fill="#D5562E" transform="translate(91,43)"/>
<path d="M0 0 C0.66 0 1.32 0 2 0 C2.48198463 1.24891614 2.96045677 2.49918808 3.4375 3.75 C3.70433594 4.44609375 3.97117188 5.1421875 4.24609375 5.859375 C9.60091922 21.06374991 7.8195634 42.49411814 1 57 C-5.71399533 70.8285707 -5.71399533 70.8285707 -11 73 C-12.35827971 74.64639965 -13.69254251 76.31295807 -15 78 C-16.485 78.99 -16.485 78.99 -18 80 C-18.99 79.67 -19.98 79.34 -21 79 C-20.35933594 78.46632813 -19.71867188 77.93265625 -19.05859375 77.3828125 C-6.29193237 66.38559897 2.82331297 51.81131457 4.18457031 34.67675781 C4.83350108 22.51514163 3.67519007 11.59981866 0 0 Z " fill="#175887" transform="translate(162,68)"/>
<path d="M0 0 C0 0.33 0 0.66 0 1 C-1.05316406 1.03738281 -2.10632813 1.07476562 -3.19140625 1.11328125 C-17.60431307 1.72580876 -30.84881159 3.64391039 -44 10 C-44.75410156 10.35707031 -45.50820312 10.71414062 -46.28515625 11.08203125 C-56.28961081 16.22043532 -65.35517352 23.82181354 -73 32 C-73.33 31.01 -73.66 30.02 -74 29 C-73.34 29 -72.68 29 -72 29 C-71.67 28.01 -71.34 27.02 -71 26 C-69.29296875 24.24609375 -69.29296875 24.24609375 -67.1875 22.4375 C-66.15689453 21.53837891 -66.15689453 21.53837891 -65.10546875 20.62109375 C-63.13444155 19.10351251 -61.26035739 18.02097042 -59 17 C-59 16.34 -59 15.68 -59 15 C-55.362132 12.94413071 -51.6909085 10.95898642 -48 9 C-46.53626953 8.21109375 -46.53626953 8.21109375 -45.04296875 7.40625 C-31.46177863 0.5720696 -15.07859965 -3.17444203 0 0 Z " fill="#0C4F80" transform="translate(112,31)"/>
<path d="M0 0 C0.99 0.495 0.99 0.495 2 1 C-14.3129825 16.50740312 -33.19230494 24.53072746 -55.796875 24.203125 C-60.62245301 23.89711274 -65.28730055 23.0577602 -70 22 C-70 21.67 -70 21.34 -70 21 C-69.26587891 21.02094727 -68.53175781 21.04189453 -67.77539062 21.06347656 C-53.48042452 21.41704648 -40.67384511 21.37633346 -27 17 C-25.33857872 16.64143589 -23.67339847 16.29770197 -22 16 C-22 15.34 -22 14.68 -22 14 C-21.443125 13.78085938 -20.88625 13.56171875 -20.3125 13.3359375 C-14.51873478 10.92839317 -9.8552947 7.94756569 -5 4 C-4.01 3.21625 -3.02 2.4325 -2 1.625 C-1.34 1.08875 -0.68 0.5525 0 0 Z " fill="#105689" transform="translate(174,159)"/>
<path d="M0 0 C18.69645805 5.37383225 30.64241418 22.15191466 39.81640625 38.171875 C41 41 41 41 40.6875 43.375 C40.460625 43.91125 40.23375 44.4475 40 45 C38.82823482 42.87767021 37.66245215 40.75242209 36.5 38.625 C36.16613281 38.02171875 35.83226562 37.4184375 35.48828125 36.796875 C33 32.2265625 33 32.2265625 33 30 C32.01 30 31.02 30 30 30 C29.70867187 29.33613281 29.41734375 28.67226563 29.1171875 27.98828125 C26.43327754 22.20690287 24.09277867 18.78997483 19 15 C19 14.34 19 13.68 19 13 C18.34 13 17.68 13 17 13 C17 12.34 17 11.68 17 11 C16.01 11 15.02 11 14 11 C14 10.34 14 9.68 14 9 C13.360625 8.773125 12.72125 8.54625 12.0625 8.3125 C7.86679739 6.51434174 3.96099444 4.26095979 0 2 C0 1.34 0 0.68 0 0 Z " fill="#1B5E8D" transform="translate(159,13)"/>
<path d="M0 0 C3.84303075 3.84303075 4.80429603 9.96467873 5.3125 15.25 C5 18 5 18 4 20.75 C2.63193845 25.19620005 2.83581653 29.38462034 3 34 C2.34 32.68 1.68 31.36 1 30 C0.67 30.99 0.34 31.98 0 33 C-0.66 33 -1.32 33 -2 33 C-1.84660156 32.12214844 -1.69320312 31.24429688 -1.53515625 30.33984375 C-0.69392753 24.45124273 -0.63508976 18.49991031 -0.4375 12.5625 C-0.39431641 11.35400391 -0.35113281 10.14550781 -0.30664062 8.90039062 C-0.20110596 5.93369394 -0.09899286 2.96692098 0 0 Z " fill="#E05A29" transform="translate(216,78)"/>
<path d="M0 0 C0.33 0 0.66 0 1 0 C0.98428955 0.62229492 0.9685791 1.24458984 0.95239258 1.88574219 C0.41919881 24.72803039 0.41919881 24.72803039 5 47 C5.99 46.505 5.99 46.505 7 46 C7.36463732 47.74784829 7.7163078 49.49840502 8.0625 51.25 C8.25972656 52.22453125 8.45695313 53.1990625 8.66015625 54.203125 C8.98397535 56.868119 8.85503199 58.48871723 8 61 C1.38578281 45.73100925 -1.177724 31.64518559 -1.125 15.125 C-1.12886719 13.89007813 -1.13273438 12.65515625 -1.13671875 11.3828125 C-1.13542969 10.2071875 -1.13414063 9.0315625 -1.1328125 7.8203125 C-1.13168457 6.75055176 -1.13055664 5.68079102 -1.12939453 4.57861328 C-1 2 -1 2 0 0 Z " fill="#114C76" transform="translate(4,99)"/>
<path d="M0 0 C0.33 0 0.66 0 1 0 C1.74756329 24.37056329 -1.14348356 43.69012655 -11 66 C-12.16952466 62.49142603 -11.76017128 60.57280503 -11 57 C-10 55 -10 55 -8 52 C-6.43102633 47.40106504 -5.21075071 42.70412262 -4 38 C-3.70609375 36.86175781 -3.4121875 35.72351563 -3.109375 34.55078125 C-0.50324071 23.14255613 -0.2750521 11.66008151 0 0 Z " fill="#B24F33" transform="translate(222,97)"/>
<path d="M0 0 C4.28021014 3.45120102 5.15170756 6.92449043 6.3125 12.0625 C6.49361328 12.78244141 6.67472656 13.50238281 6.86132812 14.24414062 C7.67442413 17.65155072 8.12747052 19.61758844 7 23 C6.01 20.03 5.02 17.06 4 14 C3.970271 15.0355603 3.970271 15.0355603 3.93994141 16.09204102 C3.84411707 19.24921471 3.73467186 22.40577822 3.625 25.5625 C3.5940625 26.64853516 3.563125 27.73457031 3.53125 28.85351562 C3.32279338 34.56870137 2.90761753 39.59508366 1 45 C0.67 45 0.34 45 0 45 C0.10828125 43.92298828 0.10828125 43.92298828 0.21875 42.82421875 C0.84229749 35.86993212 1.10886255 28.98011889 1.125 22 C1.12951172 21.18748779 1.13402344 20.37497559 1.13867188 19.5378418 C1.12869439 15.53562189 0.88108325 11.9197798 0 8 C-0.11678799 5.32321927 -0.0454506 2.68158543 0 0 Z " fill="#B95D3B" transform="translate(213,66)"/>
<path d="M0 0 C0.33 0 0.66 0 1 0 C1.27972656 1.24394531 1.55945313 2.48789063 1.84765625 3.76953125 C4.1769042 13.61909228 6.64656755 21.89830762 13 30 C13.61230469 30.83144531 14.22460938 31.66289062 14.85546875 32.51953125 C17.24911181 35.28813479 19.75869278 37.21146279 22.75 39.3125 C23.73484375 40.00988281 24.7196875 40.70726562 25.734375 41.42578125 C26.85585937 42.20501953 26.85585937 42.20501953 28 43 C27.01 43.495 27.01 43.495 26 44 C12.43386873 35.99221418 4.27144392 24.13487583 0 9 C-0.1953125 6.4453125 -0.1953125 6.4453125 -0.125 4.125 C-0.10695313 3.34382812 -0.08890625 2.56265625 -0.0703125 1.7578125 C-0.04710938 1.17773438 -0.02390625 0.59765625 0 0 Z " fill="#0D5385" transform="translate(68,133)"/>
<path d="M0 0 C2 3 2 3 1.80859375 4.953125 C0.87861791 7.30726674 -0.27413631 8.84668898 -1.9375 10.75 C-2.46214844 11.36359375 -2.98679688 11.9771875 -3.52734375 12.609375 C-5 14 -5 14 -7 14 C-7.66 15.65 -8.32 17.3 -9 19 C-7.68 19.33 -6.36 19.66 -5 20 C-5.66 20.33 -6.32 20.66 -7 21 C-7.99 20.67 -8.98 20.34 -10 20 C-10.33 21.32 -10.66 22.64 -11 24 C-11.66 24 -12.32 24 -13 24 C-13.33 24.99 -13.66 25.98 -14 27 C-15.65 27.33 -17.3 27.66 -19 28 C-18.21625 26.96875 -17.4325 25.9375 -16.625 24.875 C-13.65151096 20.90088577 -10.71943441 16.89794214 -7.8125 12.875 C-7.38469238 12.28960449 -6.95688477 11.70420898 -6.51611328 11.10107422 C-3.95825108 7.54331133 -1.860357 3.98734498 0 0 Z " fill="#D16B48" transform="translate(202,138)"/>
<path d="M0 0 C11.08906971 1.19702102 21.12076549 9.61808701 28 18 C30.2796122 21.19424276 32.49136464 24.36615656 34 28 C33.505 29.485 33.505 29.485 33 31 C32.56429687 30.28714844 32.12859375 29.57429688 31.6796875 28.83984375 C23.29951362 15.36263771 14.51475082 7.70149134 0 1 C0 0.67 0 0.34 0 0 Z " fill="#135383" transform="translate(128,36)"/>
<path d="M0 0 C-1 3 -1 3 -3.109375 4.1328125 C-4.41648437 4.62394531 -4.41648437 4.62394531 -5.75 5.125 C-6.61109375 5.45757812 -7.4721875 5.79015625 -8.359375 6.1328125 C-14.38691606 8.11227125 -20.08985003 8.18313531 -26.375 8.1875 C-27.29539062 8.19974609 -28.21578125 8.21199219 -29.1640625 8.22460938 C-34.48867193 8.23601925 -39.00603537 7.91816701 -44 6 C-44.33 5.34 -44.66 4.68 -45 4 C-44.20078125 4.144375 -43.4015625 4.28875 -42.578125 4.4375 C-26.04234245 7.23228015 -14.75232417 0 0 0 Z " fill="#155984" transform="translate(141,148)"/>
<path d="M0 0 C1.32 0 2.64 0 4 0 C4 0.66 4 1.32 4 2 C4.99 2 5.98 2 7 2 C8.38671875 3.42578125 8.38671875 3.42578125 9.6875 5.3125 C10.12449219 5.92738281 10.56148437 6.54226562 11.01171875 7.17578125 C12 9 12 9 12 12 C12.66 12 13.32 12 14 12 C16.3208055 15.2491277 17.43697042 18.05879291 18 22 C18.66 22 19.32 22 20 22 C19.67 23.65 19.34 25.3 19 27 C16.51784694 23.93381092 14.89887608 20.82565262 13.25 17.25 C9.86362065 10.33367908 5.40323778 5.37058982 0 0 Z " fill="#BD5230" transform="translate(138,77)"/>
<path d="M0 0 C0.66 0 1.32 0 2 0 C0.85631813 7.2051958 -1.38244882 12.30546895 -6 18 C-6.33 18 -6.66 18 -7 18 C-7 16.35 -7 14.7 -7 13 C-6.34 13 -5.68 13 -5 13 C-4.67 11.02 -4.34 9.04 -4 7 C-4.99 6.67 -5.98 6.34 -7 6 C-6.34 6 -5.68 6 -5 6 C-4.67 4.68 -4.34 3.36 -4 2 C-3.01 2 -2.02 2 -1 2 C-0.67 1.34 -0.34 0.68 0 0 Z " fill="#E55625" transform="translate(209,158)"/>
<path d="M0 0 C4.12498468 -0.02938023 8.24994191 -0.04692535 12.375 -0.0625 C13.53128906 -0.07087891 14.68757813 -0.07925781 15.87890625 -0.08789062 C34.67778723 -0.14099481 34.67778723 -0.14099481 37.66552734 2.43725586 C38.10590332 2.95296143 38.5462793 3.46866699 39 4 C39.556875 4.556875 40.11375 5.11375 40.6875 5.6875 C41.120625 6.120625 41.55375 6.55375 42 7 C38.44407294 7 36.61952321 5.9491667 33.375 4.5 C22.66500311 0.4893999 11.26302748 1.56884759 0 2 C0 1.34 0 0.68 0 0 Z " fill="#CA5C3E" transform="translate(96,69)"/>
<path d="M0 0 C-20.0591716 15 -20.0591716 15 -30 15 C-30 14.34 -30 13.68 -30 13 C-29.24074219 12.74605469 -28.48148438 12.49210938 -27.69921875 12.23046875 C-26.70535156 11.88628906 -25.71148437 11.54210937 -24.6875 11.1875 C-23.70136719 10.85105469 -22.71523437 10.51460937 -21.69921875 10.16796875 C-19.05793875 9.02507046 -17.94349079 8.02492197 -16 6 C-13.97539239 5.13402922 -11.94022573 4.50085274 -9.83984375 3.84375 C-7.64090211 3.03019262 -7.64090211 3.03019262 -6 0 C-3 -1 -3 -1 0 0 Z " fill="#C65330" transform="translate(179,200)"/>
<path d="M0 0 C-3.90143008 0.16255959 -6.75925185 0.0654666 -10.5625 -0.96875 C-15.67044608 -2.30378136 -20.74395289 -2.45100672 -26 -2.625 C-26.96550781 -2.66367187 -27.93101563 -2.70234375 -28.92578125 -2.7421875 C-31.2836744 -2.83556941 -33.64157756 -2.92134329 -36 -3 C-36 -3.33 -36 -3.66 -36 -4 C-24.64875388 -6.06386293 -9.91024467 -6.60682978 0 0 Z " fill="#B75A36" transform="translate(128,46)"/>
<path d="M0 0 C-2.69203601 1.39352898 -5.37983997 2.57127566 -8.22265625 3.62109375 C-9.00833984 3.91693359 -9.79402344 4.21277344 -10.60351562 4.51757812 C-12.24499002 5.13166426 -13.88823727 5.74103188 -15.53320312 6.34570312 C-16.70979492 6.79139648 -16.70979492 6.79139648 -17.91015625 7.24609375 C-18.97955444 7.64332642 -18.97955444 7.64332642 -20.07055664 8.04858398 C-22.18364929 9.09055818 -23.38106135 10.30893723 -25 12 C-28.0625 13.75 -28.0625 13.75 -31 15 C-31.66 14.67 -32.32 14.34 -33 14 C-24.21054931 7.00980157 -11.56416177 -0.31254491 0 0 Z " fill="#C05C3E" transform="translate(91,43)"/>
<path d="M0 0 C0.33 0 0.66 0 1 0 C1 8.25 1 16.5 1 25 C0.34 24.67 -0.32 24.34 -1 24 C-1.6328125 21.27734375 -1.6328125 21.27734375 -2.125 17.9375 C-2.37636719 16.28041016 -2.37636719 16.28041016 -2.6328125 14.58984375 C-2.75398437 13.73519531 -2.87515625 12.88054687 -3 12 C-2.34 12 -1.68 12 -1 12 C-0.67 8.04 -0.34 4.08 0 0 Z " fill="#0B66A1" transform="translate(9,122)"/>
<path d="M0 0 C0 0.33 0 0.66 0 1 C-1.03898437 1.19335938 -2.07796875 1.38671875 -3.1484375 1.5859375 C-10.7757241 3.00873389 -18.3979502 4.44669656 -26 6 C-26 5.34 -26 4.68 -26 4 C-17.13324662 1.49143454 -9.23121871 -0.18462437 0 0 Z " fill="#13598A" transform="translate(104,4)"/>
<path d="M0 0 C1.24540698 3.51395284 0.76387905 5.36669027 -0.65234375 8.765625 C-1.01650391 9.65507812 -1.38066406 10.54453125 -1.75585938 11.4609375 C-2.34077148 12.84152344 -2.34077148 12.84152344 -2.9375 14.25 C-3.32357422 15.18585938 -3.70964844 16.12171875 -4.10742188 17.0859375 C-5.06166831 19.39497827 -6.02611662 21.69918862 -7 24 C-8.16952466 20.49142603 -7.76017128 18.57280503 -7 15 C-6 13 -6 13 -4 10 C-3.25967621 8.28428611 -2.55336664 6.55364105 -1.875 4.8125 C-1.34519531 3.46091797 -1.34519531 3.46091797 -0.8046875 2.08203125 C-0.53914062 1.39496094 -0.27359375 0.70789063 0 0 Z " fill="#C05939" transform="translate(218,139)"/>
<path d="M0 0 C0.66 0 1.32 0 2 0 C0.4307213 3.65880741 -1.8319796 6.25527628 -4.5 9.1875 C-5.2940625 10.06792969 -6.088125 10.94835937 -6.90625 11.85546875 C-9 14 -9 14 -11 15 C-11.33 13.35 -11.66 11.7 -12 10 C-6.25 7 -6.25 7 -4 7 C-3.896875 6.360625 -3.79375 5.72125 -3.6875 5.0625 C-3.460625 4.381875 -3.23375 3.70125 -3 3 C-2.01 2.67 -1.02 2.34 0 2 C0 1.34 0 0.68 0 0 Z " fill="#C75B3E" transform="translate(199,177)"/>
<path d="M0 0 C2.6875 0.875 2.6875 0.875 5 2 C4.01 2.495 4.01 2.495 3 3 C2.01 2.67 1.02 2.34 0 2 C-0.33 3.32 -0.66 4.64 -1 6 C-1.66 6 -2.32 6 -3 6 C-3.33 6.99 -3.66 7.98 -4 9 C-5.65 9.33 -7.3 9.66 -9 10 C-8.06862408 8.70391053 -7.1296434 7.41328368 -6.1875 6.125 C-5.66542969 5.40570313 -5.14335937 4.68640625 -4.60546875 3.9453125 C-3 2 -3 2 0 0 Z " fill="#D46038" transform="translate(192,156)"/>
<path d="M0 0 C7.56259306 0 12.2732651 4.45382166 18 9 C16.12890625 9.6171875 16.12890625 9.6171875 14 10 C11.9375 8.125 11.9375 8.125 10 6 C9.01 5.67 8.02 5.34 7 5 C7 4.34 7 3.68 7 3 C6.401875 2.87625 5.80375 2.7525 5.1875 2.625 C3 2 3 2 0 0 Z " fill="#BA5634" transform="translate(125,46)"/>
<path d="M0 0 C3.67230705 3.07999946 4.56802365 5.2482602 5 10 C3.02 10.99 3.02 10.99 1 12 C-0.3271261 8.0186217 -0.06915913 4.14954773 0 0 Z " fill="#B5725A" transform="translate(213,66)"/>
<path d="M0 0 C0.66 0 1.32 0 2 0 C0.49637741 3.78716158 -1.05487001 7.55245187 -2.625 11.3125 C-3.07101563 12.38113281 -3.51703125 13.44976562 -3.9765625 14.55078125 C-4.31429687 15.35902344 -4.65203125 16.16726562 -5 17 C-5.33 17 -5.66 17 -6 17 C-6 14.36 -6 11.72 -6 9 C-5.01 8.67 -4.02 8.34 -3 8 C-2.38932856 6.14255793 -2.38932856 6.14255793 -2 4 C-1.36345658 2.6520257 -0.70394612 1.31403276 0 0 Z " fill="#C65A37" transform="translate(67,92)"/>
<path d="M0 0 C0.33 0 0.66 0 1 0 C1.79786404 3.35102899 2.18790324 5.44881715 1.0625 8.75 C-0.39127028 13.19682675 -0.16497195 17.36245507 0 22 C-0.33 22 -0.66 22 -1 22 C-2.56532871 14.56468865 -2.99019294 7.10170823 0 0 Z " fill="#F25E28" transform="translate(219,90)"/>
<path d="M0 0 C0.66 0 1.32 0 2 0 C2 1.32 2 2.64 2 4 C2.66 4 3.32 4 4 4 C4.33 5.32 4.66 6.64 5 8 C4.01 8.33 3.02 8.66 2 9 C1.26676204 11.01508358 1.26676204 11.01508358 1 13 C-0.10228696 8.59085217 -0.07654536 4.51617599 0 0 Z " fill="#086CAD" transform="translate(68,125)"/>
<path d="M0 0 C2.4375 0.75 2.4375 0.75 5 2 C5.8125 4.125 5.8125 4.125 6 6 C6.66 6 7.32 6 8 6 C7.34 8.31 6.68 10.62 6 13 C5.83177734 12.12214844 5.83177734 12.12214844 5.66015625 11.2265625 C4.94197837 8.80430576 3.97510219 7.36380739 2.4375 5.375 C0 2.21246459 0 2.21246459 0 0 Z " fill="#E9571B" transform="translate(211,120)"/>
<path d="M0 0 C0.33 0 0.66 0 1 0 C1.82200425 6.24723226 -1.07448606 10.71317837 -4 16 C-4.66 16 -5.32 16 -6 16 C-4.27933894 10.55123997 -2.15294651 5.28830549 0 0 Z " fill="#C66543" transform="translate(209,122)"/>
<path d="M0 0 C0.33 0.66 0.66 1.32 1 2 C-0.3984375 4.6015625 -0.3984375 4.6015625 -2.375 7.625 C-3.34566406 9.12933594 -3.34566406 9.12933594 -4.3359375 10.6640625 C-4.88507813 11.43492187 -5.43421875 12.20578125 -6 13 C-6.33 13 -6.66 13 -7 13 C-7 11.35 -7 9.7 -7 8 C-6.34 8 -5.68 8 -5 8 C-4.896875 7.360625 -4.79375 6.72125 -4.6875 6.0625 C-4.460625 5.381875 -4.23375 4.70125 -4 4 C-3.01 3.67 -2.02 3.34 -1 3 C-0.67 2.01 -0.34 1.02 0 0 Z " fill="#C45E43" transform="translate(209,163)"/>
<path d="M0 0 C5.26170694 1.41167747 8.72171358 3.74850232 13 7 C12.67 7.66 12.34 8.32 12 9 C9.99492073 7.88407791 7.99603904 6.75701288 6 5.625 C4.88625 4.99851562 3.7725 4.37203125 2.625 3.7265625 C1.75875 3.15679688 0.8925 2.58703125 0 2 C0 1.34 0 0.68 0 0 Z " fill="#175C91" transform="translate(159,13)"/>
<path d="M0 0 C0.33 0.66 0.66 1.32 1 2 C0.360625 2.4125 -0.27875 2.825 -0.9375 3.25 C-3.20990931 5.17810487 -3.60196439 6.11424181 -4 9 C-5.32 9.33 -6.64 9.66 -8 10 C-8.33 9.01 -8.66 8.02 -9 7 C-6.03 4.69 -3.06 2.38 0 0 Z " fill="#D4623C" transform="translate(177,171)"/>
<path d="M0 0 C1.31602523 0.61754259 2.62773556 1.24428742 3.9375 1.875 C4.66839844 2.22304687 5.39929688 2.57109375 6.15234375 2.9296875 C8 4 8 4 9 6 C2.375 5.25 2.375 5.25 -1 3 C-0.67 2.01 -0.34 1.02 0 0 Z M-3 5 C-1 6 -1 6 -1 6 Z " fill="#066DB0" transform="translate(83,146)"/>
<path d="M0 0 C2 3 2 3 1.8125 5 C0.90059285 7.24469451 -0.18533754 8.42203265 -2 10 C-2.6875 8.375 -2.6875 8.375 -3 6 C-1.5625 2.75 -1.5625 2.75 0 0 Z " fill="#D86638" transform="translate(202,138)"/>
<path d="M0 0 C1.5 1.1875 1.5 1.1875 3 3 C3.125 5.4375 3.125 5.4375 3 8 C3.29044914 9.34332728 3.60955794 10.68225804 4 12 C2 10.5 2 10.5 0 8 C-0.35800135 5.24128373 -0.18660165 2.79902476 0 0 Z " fill="#DA5526" transform="translate(36,179)"/>
<path d="M0 0 C-0.33 1.65 -0.66 3.3 -1 5 C-3.31 5 -5.62 5 -8 5 C-8 4.34 -8 3.68 -8 3 C-2.25 0 -2.25 0 0 0 Z " fill="#0A6AB5" transform="translate(149,145)"/>
<path d="M0 0 C0.99 0.33 1.98 0.66 3 1 C1.8803014 2.00593243 0.7540588 3.0045849 -0.375 4 C-1.00148437 4.556875 -1.62796875 5.11375 -2.2734375 5.6875 C-4 7 -4 7 -6 7 C-4.61990379 3.66476748 -3.15049348 1.81392049 0 0 Z " fill="#C9543A" transform="translate(185,192)"/>
<path d="M0 0 C2.9156164 3.54039134 5.50127818 7.1626772 8 11 C5.53199953 9.84826645 3.95216435 8.95216435 2 7 C2 6.01 2 5.02 2 4 C1.34 4 0.68 4 0 4 C0 2.68 0 1.36 0 0 Z " fill="#BB5332" transform="translate(65,160)"/>
<path d="M0 0 C0.33 0 0.66 0 1 0 C1 5.28 1 10.56 1 16 C0.34 16.33 -0.32 16.66 -1 17 C-1.33 16.01 -1.66 15.02 -2 14 C-1.67 13.67 -1.34 13.34 -1 13 C-0.76518307 10.81707226 -0.58636677 8.62796826 -0.4375 6.4375 C-0.35371094 5.23996094 -0.26992187 4.04242188 -0.18359375 2.80859375 C-0.12300781 1.88175781 -0.06242188 0.95492187 0 0 Z " fill="#9C593E" transform="translate(158,90)"/>
<path d="M0 0 C1.32 0 2.64 0 4 0 C4 0.66 4 1.32 4 2 C4.99 2 5.98 2 7 2 C7.66 3.32 8.32 4.64 9 6 C4.75177626 5.52797514 2.80010291 3.03344482 0 0 Z " fill="#C65834" transform="translate(138,77)"/>
<path d="M0 0 C3.0916909 2.52956528 3.90931332 5.22454612 5 9 C2 8 2 8 0.8125 6.1875 C0 4 0 4 0 0 Z " fill="#B95535" transform="translate(149,64)"/>
<path d="M0 0 C3.2542015 2.83430453 4.5206753 4.68607774 5 9 C4.34 9 3.68 9 3 9 C0.56839395 5.63316085 0 4.26649636 0 0 Z " fill="#136493" transform="translate(74,132)"/>
<path d="M0 0 C0.99 0.33 1.98 0.66 3 1 C0.36 2.98 -2.28 4.96 -5 7 C-5 6.01 -5 5.02 -5 4 C-4.34 4 -3.68 4 -3 4 C-2.67 3.01 -2.34 2.02 -2 1 C-1.34 0.67 -0.68 0.34 0 0 Z " fill="#CE5130" transform="translate(83,75)"/>
<path d="M0 0 C1.98 0.66 3.96 1.32 6 2 C5.67 3.65 5.34 5.3 5 7 C4.34 7 3.68 7 3 7 C2.896875 6.360625 2.79375 5.72125 2.6875 5.0625 C2.460625 4.381875 2.23375 3.70125 2 3 C1.01 2.67 0.02 2.34 -1 2 C-0.67 1.34 -0.34 0.68 0 0 Z " fill="#0463B2" transform="translate(162,65)"/>
<path d="M0 0 C3 1 3 1 5 4 C4.67 4.99 4.34 5.98 4 7 C3.01 6.67 2.02 6.34 1 6 C0.67 4.02 0.34 2.04 0 0 Z " fill="#0675C4" transform="translate(184,36)"/>
<path d="M0 0 C1.98 0.495 1.98 0.495 4 1 C3.67 2.32 3.34 3.64 3 5 C1.68 5 0.36 5 -1 5 C-0.67 3.35 -0.34 1.7 0 0 Z " fill="#E55420" transform="translate(146,210)"/>
<path d="M0 0 C1.32 0 2.64 0 4 0 C3.6875 1.875 3.6875 1.875 3 4 C2.01 4.66 1.02 5.32 0 6 C-0.38218767 4.34385343 -0.71395102 2.67542976 -1 1 C-0.67 0.67 -0.34 0.34 0 0 Z " fill="#D75331" transform="translate(188,186)"/>
<path d="M0 0 C0.99 0 1.98 0 3 0 C3.33 0.99 3.66 1.98 4 3 C2.68 3.33 1.36 3.66 0 4 C0 4.66 0 5.32 0 6 C-0.99 6.33 -1.98 6.66 -3 7 C-3 6.34 -3 5.68 -3 5 C-2.34 5 -1.68 5 -1 5 C-0.67 3.35 -0.34 1.7 0 0 Z " fill="#E55325" transform="translate(35,85)"/>
<path d="M0 0 C2.475 0.495 2.475 0.495 5 1 C5 1.99 5 2.98 5 4 C3.35 4 1.7 4 0 4 C0 2.68 0 1.36 0 0 Z " fill="#F35718" transform="translate(136,58)"/>
<path d="M0 0 C3.375 0.25 3.375 0.25 7 1 C8.4375 3.0625 8.4375 3.0625 9 5 C8.34 5 7.68 5 7 5 C7 4.34 7 3.68 7 3 C6.401875 2.87625 5.80375 2.7525 5.1875 2.625 C3 2 3 2 0 0 Z " fill="#C54D29" transform="translate(125,46)"/>
<path d="" fill="#FFFFFF" transform="translate(0,0)"/>
<path d="" fill="#FFFFFF" transform="translate(0,0)"/>
<path d="" fill="#FFFFFF" transform="translate(0,0)"/>
<path d="" fill="#FFFFFF" transform="translate(0,0)"/>
<path d="" fill="#FFFFFF" transform="translate(0,0)"/>
<path d="" fill="#FFFFFF" transform="translate(0,0)"/>
<path d="" fill="#FFFFFF" transform="translate(0,0)"/>
<path d="" fill="#FFFFFF" transform="translate(0,0)"/>
<path d="" fill="#FFFFFF" transform="translate(0,0)"/>
<path d="" fill="#FFFFFF" transform="translate(0,0)"/>
<path d="" fill="#FFFFFF" transform="translate(0,0)"/>
<path d="" fill="#FFFFFF" transform="translate(0,0)"/>
<path d="" fill="#FFFFFF" transform="translate(0,0)"/>
<path d="" fill="#FFFFFF" transform="translate(0,0)"/>
<path d="" fill="#FFFFFF" transform="translate(0,0)"/>
<path d="" fill="#FFFFFF" transform="translate(0,0)"/>
<path d="" fill="#FFFFFF" transform="translate(0,0)"/>
<path d="" fill="#FFFFFF" transform="translate(0,0)"/>
<path d="" fill="#FFFFFF" transform="translate(0,0)"/>
<path d="" fill="#FFFFFF" transform="translate(0,0)"/>
<path d="" fill="#FFFFFF" transform="translate(0,0)"/>
<path d="" fill="#FFFFFF" transform="translate(0,0)"/>
<path d="" fill="#FFFFFF" transform="translate(0,0)"/>
<path d="" fill="#00FFFF" transform="translate(0,0)"/>
<path d="" fill="#FFFFFF" transform="translate(0,0)"/>
<path d="" fill="#FFFFFF" transform="translate(0,0)"/>
<path d="" fill="#FFFFFF" transform="translate(0,0)"/>
<path d="" fill="#FFFFFF" transform="translate(0,0)"/>
<path d="" fill="#FFFFFF" transform="translate(0,0)"/>
<path d="" fill="#FFFFFF" transform="translate(0,0)"/>
</svg>
